<svg xmlns="http://www.w3.org/2000/svg" width="225" height="225" viewBox="0 0 225 225" version="1.1"><path d="M 109 26.500 L 109 39 103.950 39 C 101.173 39, 97.497 39.726, 95.781 40.613 C 86.076 45.632, 32.142 78.586, 30.250 80.653 C 27.722 83.415, 27.063 91.663, 29.200 93.800 C 29.860 94.460, 33.010 95, 36.200 95 L 42 95 42 133.500 L 42 172 36.200 172 C 33.010 172, 29.860 172.540, 29.200 173.200 C 27.562 174.838, 27.603 187.625, 29.250 188.691 C 29.995 189.173, 28.077 189.702, 24.500 190 L 18.500 190.500 18.210 199.349 C 18.024 205.013, 18.338 208.702, 19.082 209.599 C 20.824 211.698, 204.176 211.698, 205.918 209.599 C 206.662 208.702, 206.976 205.013, 206.790 199.349 L 206.500 190.500 200.500 190 C 196.923 189.702, 195.005 189.173, 195.750 188.691 C 197.397 187.625, 197.438 174.838, 195.800 173.200 C 195.140 172.540, 191.990 172, 188.800 172 L 183 172 183 133.500 L 183 95 188.800 95 C 191.990 95, 195.140 94.460, 195.800 93.800 C 197.933 91.667, 197.276 83.420, 194.750 80.603 C 193.512 79.223, 178.100 69.445, 160.500 58.875 C 129.501 40.258, 128.304 39.642, 122.250 39.212 L 116 38.767 116 34.884 L 116 31 126.208 31 L 136.416 31 132.220 26.724 L 128.023 22.448 132.247 18.224 L 136.471 14 122.735 14 L 109 14 109 26.500 M 108.388 56.934 C 101.782 59.748, 99.961 68.606, 104.901 73.894 C 109.813 79.153, 118.554 77.825, 121.883 71.316 C 126.078 63.113, 116.883 53.314, 108.388 56.934 M 56 133.500 L 56 172 62 172 L 68 172 68 133.500 L 68 95 62 95 L 56 95 56 133.500 M 81 133.500 L 81 172 87 172 L 93 172 93 133.500 L 93 95 87 95 L 81 95 81 133.500 M 107 133.500 L 107 172 112.500 172 L 118 172 118 133.500 L 118 95 112.500 95 L 107 95 107 133.500 M 132 133.500 L 132 172 138 172 L 144 172 144 133.500 L 144 95 138 95 L 132 95 132 133.500 M 157 133.500 L 157 172 163 172 L 169 172 169 133.500 L 169 95 163 95 L 157 95 157 133.500" stroke="none" fill="#063c55" fill-rule="evenodd"/></svg>