<svg xmlns="http://www.w3.org/2000/svg" width="512" height="512" viewBox="0 0 512 512" version="1.1"><path d="M 241.667 34.400 C 229.949 39.310, 223.495 45.428, 218.277 56.570 C 215.794 61.873, 215.500 63.611, 215.500 73 C 215.500 82.757, 215.728 83.982, 218.728 90.315 C 220.790 94.669, 223.927 99.054, 227.413 102.458 L 232.871 107.787 225.185 110.475 C 220.958 111.954, 214.394 114.988, 210.597 117.217 C 202.583 121.923, 189.279 134.247, 184.874 141.045 L 181.824 145.752 175.662 143.700 C 172.273 142.571, 169.365 141.554, 169.199 141.440 C 169.034 141.325, 171.310 138.817, 174.258 135.866 C 187.414 122.693, 190.376 104.362, 182.073 87.497 C 174.480 72.074, 155.738 62.650, 138.888 65.784 C 121.556 69.007, 108.974 81.139, 105.396 98.078 C 102.501 111.788, 106.979 126.239, 117.210 136.205 C 119.974 138.896, 122.069 141.241, 121.867 141.415 C 121.665 141.588, 119.025 142.528, 116 143.503 C 103.388 147.569, 92.038 154.977, 81.815 165.813 C 73.458 174.672, 67.992 183.873, 63.883 196 C 61.141 204.091, 60.597 207.322, 60.210 217.786 C 59.692 231.814, 60.833 236.404, 66.206 241.899 C 72.377 248.211, 73.489 248.469, 96.100 248.821 L 116.700 249.142 117.393 236.321 C 118.289 219.732, 120.891 194.677, 121.796 193.919 C 122.183 193.594, 126.325 192.556, 131 191.612 C 149.818 187.811, 171.357 179.979, 192 169.430 C 210.378 160.039, 224.914 150.638, 251.750 130.786 L 256 127.643 260.250 130.786 C 287.086 150.638, 301.622 160.039, 320 169.430 C 340.556 179.934, 361.964 187.713, 381 191.595 C 385.675 192.548, 389.817 193.594, 390.204 193.919 C 391.101 194.670, 393.672 219.579, 394.582 236.321 L 395.279 249.142 415.889 248.821 C 438.512 248.469, 439.623 248.212, 445.794 241.899 C 451.195 236.375, 452.341 231.751, 451.777 217.752 C 451.362 207.450, 450.775 203.988, 448.091 196 C 444.025 183.903, 438.562 174.693, 430.185 165.813 C 419.962 154.977, 408.612 147.569, 396 143.503 C 392.975 142.528, 390.335 141.588, 390.133 141.415 C 389.931 141.241, 392.026 138.896, 394.790 136.205 C 419.162 112.466, 406.714 72.033, 373.111 65.783 C 360.186 63.380, 345.250 68.506, 336.285 78.423 C 321.051 95.272, 321.673 119.776, 337.742 135.866 C 340.690 138.817, 342.966 141.325, 342.801 141.440 C 342.635 141.554, 339.704 142.579, 336.286 143.717 L 330.072 145.787 326.987 140.979 C 322.594 134.133, 309.500 121.972, 301.403 117.217 C 297.606 114.988, 291.042 111.954, 286.815 110.475 L 279.129 107.787 284.587 102.458 C 288.073 99.054, 291.210 94.669, 293.272 90.315 C 296.272 83.982, 296.500 82.757, 296.500 73 C 296.500 63.310, 296.260 61.998, 293.390 56 C 288.835 46.482, 283.250 40.728, 274.242 36.272 C 267.250 32.814, 265.820 32.477, 257.058 32.228 C 248.799 31.992, 246.707 32.287, 241.667 34.400 M 226 253 L 226 274 205 274 L 184 274 184 304 L 184 334 205 334 L 226 334 226 355 L 226 376 256 376 L 286 376 286 355 L 286 334 307 334 L 328 334 328 304 L 328 274 307 274 L 286 274 286 253 L 286 232 256 232 L 226 232 226 253" stroke="none" fill="#9fcfe0" fill-rule="evenodd"/><path d="M 246.902 134.332 C 205.748 165.345, 167.528 184.234, 131 191.612 C 126.325 192.556, 122.181 193.596, 121.792 193.922 C 120.860 194.704, 118.342 219.926, 116.943 242.500 C 114.412 283.331, 119.604 329.417, 130.484 362.711 C 135.985 379.545, 146.675 401.251, 155.743 414 C 168.945 432.561, 188.215 449.788, 208.794 461.425 C 219.465 467.460, 239.743 475.887, 250.190 478.630 L 256.880 480.386 268.266 476.641 C 339.773 453.120, 381.334 398.523, 392.485 313.456 C 395.186 292.849, 396.242 263.530, 395.023 243 C 393.675 220.321, 391.164 194.724, 390.208 193.922 C 389.819 193.596, 385.675 192.548, 381 191.595 C 344.164 184.083, 306.276 165.364, 265.098 134.332 C 260.476 130.849, 256.382 128, 256 128 C 255.618 128, 251.524 130.849, 246.902 134.332 M 226 253 L 226 274 205 274 L 184 274 184 304 L 184 334 205 334 L 226 334 226 355 L 226 376 256 376 L 286 376 286 355 L 286 334 307 334 L 328 334 328 304 L 328 274 307 274 L 286 274 286 253 L 286 232 256 232 L 226 232 226 253" stroke="none" fill="#e4475f" fill-rule="evenodd"/></svg>