<svg xmlns="http://www.w3.org/2000/svg" width="820" height="616" viewBox="0 0 820 616" version="1.1"><path d="M 410.030 43.770 C 397.672 43.918, 387.194 44.406, 386.746 44.854 C 386.299 45.301, 387.695 51.030, 389.848 57.584 C 398.950 85.281, 399.439 87.079, 398.347 88.822 C 396.604 91.604, 394.016 91.288, 379.151 86.479 C 371.317 83.945, 364.207 82.013, 363.350 82.186 C 361.992 82.460, 361.794 85.550, 361.805 106.325 C 361.812 119.430, 362.041 130.375, 362.315 130.648 C 362.588 130.922, 366.117 129.379, 370.156 127.220 C 394.629 114.138, 398.136 112.956, 398.796 117.568 C 398.958 118.706, 394.626 133.106, 389.168 149.568 C 383.710 166.031, 378.931 181.381, 378.546 183.679 C 377.673 188.905, 380.132 199.068, 383.506 204.179 C 387.152 209.702, 390.823 212.764, 397.855 216.146 C 403.610 218.914, 404.932 219.164, 411.855 218.796 C 417.042 218.520, 420.968 217.676, 424.066 216.171 C 429.045 213.752, 435.665 208.014, 438.236 203.890 C 441.157 199.204, 443.282 190.006, 442.699 184.575 C 442.399 181.784, 437.610 165.821, 432.057 149.102 C 426.282 131.717, 422.211 117.911, 422.547 116.852 C 422.908 115.714, 424.078 115, 425.581 115 C 427.809 115, 439.292 120.570, 452.738 128.172 C 455.619 129.800, 458.431 130.851, 458.988 130.507 C 459.625 130.114, 460 121.013, 460 105.941 L 460 82 457.750 82.021 C 456.512 82.032, 449.425 84.056, 442 86.518 C 427.187 91.429, 424.889 91.776, 422.917 89.400 C 421.801 88.055, 421.928 86.820, 423.716 81.650 C 424.885 78.268, 427.958 68.821, 430.544 60.658 C 434.466 48.277, 435.018 45.625, 433.873 44.658 C 432.900 43.837, 425.956 43.579, 410.030 43.770 M 252 111.933 C 245.825 114.432, 239.984 119.756, 237.003 125.603 C 233.466 132.542, 233.528 142.580, 237.151 149.550 C 242.796 160.410, 255.769 166.782, 266.711 164.070 C 284.405 159.685, 293.408 141.504, 285.681 125.761 C 279.359 112.881, 264.615 106.828, 252 111.933 M 551.324 111.638 C 545.439 113.723, 538.141 120.503, 535.366 126.462 C 529.818 138.376, 534.425 153.211, 545.917 160.439 C 561.526 170.257, 581.786 161.707, 586.498 143.313 C 587.841 138.070, 587.840 136.806, 586.485 131.604 C 582.312 115.581, 566.129 106.392, 551.324 111.638 M 321 133.824 C 313.945 136.452, 306.824 144.199, 304.577 151.689 C 302.403 158.935, 302.797 163.883, 306.087 170.680 C 310.926 180.676, 319.466 186.013, 330.566 185.978 C 338.785 185.952, 344.055 183.879, 349.344 178.589 C 360.029 167.904, 360.630 152.677, 350.808 141.519 C 343.058 132.715, 331.787 129.805, 321 133.824 M 481.456 133.806 C 475.240 136.410, 471.526 139.505, 467.974 145.040 C 463.777 151.581, 462.748 161.433, 465.507 168.657 C 469.546 179.234, 479.474 185.980, 491 185.980 C 506.849 185.980, 518.710 173.591, 517.788 158 C 517.338 150.389, 515.381 145.868, 510.232 140.549 C 502.599 132.662, 490.791 129.895, 481.456 133.806 M 191.420 147.844 C 184.320 150.482, 181.511 152.525, 177.650 157.864 C 169.136 169.636, 170.191 182.321, 180.545 192.675 C 189.182 201.312, 200.820 203.227, 211.689 197.798 C 220.958 193.169, 228.019 180.632, 226.737 171.078 C 224.477 154.229, 206.345 142.300, 191.420 147.844 M 614.295 147.696 C 608.026 149.545, 601.961 154.509, 598.243 160.834 C 595.870 164.871, 595.500 166.578, 595.500 173.500 C 595.500 182.640, 597.034 186.669, 602.761 192.565 C 613.353 203.472, 632.418 203.261, 642.191 192.129 C 648.625 184.801, 650.753 175.109, 648.035 165.500 C 645.907 157.973, 637.521 149.945, 629.434 147.691 C 622.250 145.688, 621.103 145.689, 614.295 147.696 M 175.897 215.897 C 171.586 216.783, 164.364 220.884, 161.258 224.210 C 157.725 227.994, 152.999 238.626, 153.010 242.766 C 153.023 247.709, 157.221 256.569, 161.809 261.335 C 167.660 267.414, 172.297 269.372, 181 269.441 C 187.497 269.492, 189.212 269.106, 193.824 266.551 C 199.530 263.390, 204.119 258.352, 206.514 252.620 C 208.697 247.395, 208.432 236.838, 205.982 231.460 C 200.863 220.224, 187.778 213.455, 175.897 215.897 M 634.332 215.904 C 630.184 216.964, 623.041 221.200, 620.419 224.155 C 615.119 230.127, 613.617 234.168, 613.600 242.500 C 613.582 251.560, 614.949 255.107, 620.860 261.335 C 626.665 267.450, 631.283 269.395, 640 269.395 C 651.832 269.395, 659.841 264.310, 664.986 253.530 C 668.661 245.829, 668.812 240.569, 665.574 233.062 C 660.157 220.508, 646.237 212.863, 634.332 215.904 M 274.237 231.250 C 266.959 244.060, 265.670 248.288, 265.627 259.500 C 265.598 267.307, 266.057 270.762, 267.720 275.254 C 270.153 281.822, 277.371 293.099, 281.920 297.437 C 286.925 302.210, 286.139 303.025, 277.195 302.336 C 267.642 301.599, 261.845 303.712, 257.392 309.557 C 254.720 313.062, 254.501 314.003, 254.511 321.925 C 254.527 334.914, 257.876 340.174, 261.940 333.597 C 266.385 326.405, 274.975 323.967, 281.552 328.032 C 288.018 332.028, 291.486 341.790, 289.787 351.211 C 288.624 357.664, 286.142 361.867, 280.788 366.449 C 265.405 379.617, 242.936 371.916, 226.246 347.756 C 220.595 339.576, 216 331.639, 216 330.058 C 216 327.074, 227.669 330.632, 237 336.460 C 240.025 338.350, 242.800 339.582, 243.167 339.198 C 243.534 338.814, 242.540 334.450, 240.958 329.500 C 235.645 312.876, 230.166 294.529, 229.462 291 C 228.665 287.005, 227.266 284, 226.205 284 C 225.807 284, 224.439 287.262, 223.165 291.250 C 220.712 298.930, 213.510 312.590, 211.509 313.358 C 210.854 313.609, 209.684 313.423, 208.909 312.944 C 206.915 311.711, 206.903 285.916, 208.894 281.194 C 209.779 279.097, 209.940 277.540, 209.335 276.935 C 208.273 275.873, 177.469 286.339, 175.090 288.569 C 173.884 289.700, 174.041 290.371, 176.167 293.196 C 184.412 304.149, 198.925 331.459, 205.422 348.244 C 206.857 351.953, 209.113 357.803, 210.435 361.244 C 211.756 364.685, 214.261 372.225, 216.002 378 C 217.742 383.775, 219.563 389.625, 220.049 391 C 220.536 392.375, 222.342 398.900, 224.064 405.500 C 225.786 412.100, 227.551 417.878, 227.987 418.340 C 228.423 418.802, 236.592 418.229, 246.140 417.066 C 276.878 413.324, 279.216 413.074, 298 411.528 C 389.608 403.988, 490.230 406.152, 579.394 417.579 C 585.935 418.418, 591.879 418.877, 592.602 418.599 C 593.325 418.322, 594.582 415.711, 595.395 412.797 C 607.119 370.780, 615.114 347.951, 625.267 327.500 C 630.889 316.176, 640.322 300.003, 644.672 294.227 C 646.028 292.426, 646.994 290.251, 646.819 289.392 C 646.416 287.421, 613.975 275.625, 612.637 276.963 C 612.094 277.506, 612.206 279.761, 612.916 282.579 C 615.361 292.290, 614.136 314, 611.143 314 C 608.127 314, 597.002 292.612, 597.001 286.809 C 597 285.043, 595.252 283.415, 594.338 284.329 C 594.047 284.620, 592.983 287.927, 591.974 291.679 C 590.965 295.431, 587.586 306.825, 584.464 317 C 581.342 327.175, 578.558 336.288, 578.277 337.250 C 577.481 339.981, 580.224 339.387, 585.827 335.616 C 591.066 332.091, 602.622 327.649, 604.130 328.581 C 605.857 329.648, 604.907 332.213, 599.497 341.094 C 592.573 352.458, 588.057 357.872, 580.631 363.708 C 567.106 374.336, 554.871 375.743, 542.760 368.062 C 533.990 362.501, 529.453 351.214, 531.836 340.889 C 535.519 324.935, 551.369 320.844, 559.500 333.749 C 563.049 339.382, 564.938 337.761, 567.117 327.211 C 568.747 319.321, 567.288 312.952, 562.784 308.289 C 557.532 302.851, 553.807 301.646, 544.314 302.316 C 539.741 302.639, 536 302.664, 536 302.372 C 536 302.081, 538.176 299.290, 540.836 296.171 C 549.572 285.927, 553.624 277.901, 555.527 267.075 C 557.639 255.060, 555.197 244.681, 547.020 230.916 C 544.276 226.298, 542.290 224, 541.044 224 C 540.017 224, 535.728 227.471, 531.514 231.712 C 525.617 237.647, 522.889 241.392, 519.676 247.962 L 515.500 256.500 515.599 268.500 C 515.687 279.211, 516.036 281.482, 518.849 289.648 C 520.582 294.679, 522 299.066, 522 299.398 C 522 300.621, 519.858 299.935, 516.229 297.550 C 510.450 293.753, 504.034 292.373, 499.070 293.861 C 489.474 296.736, 484.232 305.869, 485.344 317.777 C 486.142 326.327, 487.125 327.239, 491.248 323.249 C 493.037 321.518, 496.176 319.402, 498.224 318.548 C 501.563 317.155, 502.337 317.152, 505.724 318.511 C 512.321 321.160, 516.777 330.314, 515.611 338.822 C 514.045 350.243, 504.615 359.673, 488.870 365.561 C 483.318 367.638, 462.221 368.642, 455.307 367.159 C 437.538 363.349, 427.159 354.226, 422.130 338 C 420.697 333.374, 418.931 317.344, 419.649 315.473 C 421.065 311.782, 432.314 315.194, 442.359 322.362 C 445.884 324.877, 451.455 329.942, 454.739 333.616 C 458.024 337.290, 461.156 340.021, 461.701 339.685 C 462.245 339.349, 462.997 334.219, 463.373 328.287 C 464.449 311.268, 466.826 285.718, 467.562 283.250 C 468.555 279.922, 465.740 280.344, 461.898 284.100 C 454.259 291.567, 442.601 296.891, 428.954 299.145 C 423.146 300.104, 421.666 300.077, 421.001 299.002 C 419.906 297.230, 420.446 295.986, 426.866 285.500 C 432.402 276.456, 434.221 273.966, 443.578 262.622 C 446.370 259.237, 448.508 256.024, 448.328 255.483 C 447.809 253.927, 373.702 254.395, 373.181 255.957 C 372.956 256.631, 374.345 258.829, 376.268 260.841 C 385.691 270.705, 401.454 294.531, 400.763 297.867 C 400.497 299.154, 399.374 299.449, 395.463 299.260 C 383.564 298.686, 372.006 294.151, 362.086 286.164 C 358.558 283.324, 355.238 281, 354.708 281 C 354.161 281, 353.988 282.621, 354.307 284.750 C 354.616 286.813, 355.887 300.087, 357.131 314.250 C 358.704 332.160, 359.753 340, 360.577 340 C 361.229 340, 363.044 338.313, 364.611 336.250 C 373.786 324.172, 390.592 313.255, 398.605 314.170 L 401.500 314.500 401.267 322.934 C 400.796 340.048, 393.999 354.400, 383.435 360.591 C 374.639 365.745, 369.200 367.158, 356 367.717 C 341.790 368.318, 334.753 367.039, 324.328 361.959 C 316.966 358.372, 308.941 350.085, 307.200 344.272 C 302.248 327.745, 313.262 312.913, 325.708 319.349 C 327.355 320.201, 329.455 322.046, 330.375 323.449 C 332.267 326.337, 334.492 326.767, 335.393 324.418 C 335.727 323.548, 336 319.480, 336 315.378 C 336 309.895, 335.471 306.883, 334.001 304.001 C 328.132 292.497, 315.605 289.970, 304.593 298.068 C 299.487 301.823, 298.277 300.641, 300.803 294.370 C 304.818 284.402, 305.500 280.573, 305.500 268 C 305.500 255.589, 305.473 255.446, 301.755 247.838 C 297.310 238.745, 284.209 224, 280.574 224 C 278.867 224, 277.409 225.668, 274.237 231.250 M 205.094 479.065 C 191.990 481.401, 178.182 491.754, 172.098 503.806 C 167.957 512.010, 166.282 522.656, 167.696 531.791 C 170.542 550.177, 185.224 565.576, 203.238 569.067 C 215.379 571.420, 233.007 569.634, 243.904 564.946 L 249.043 562.735 248.772 544.118 L 248.500 525.500 234 525.500 L 219.500 525.500 219.500 530.500 L 219.500 535.500 225.500 535.757 C 236.474 536.228, 236 535.771, 236 545.898 C 236 554.637, 235.963 554.772, 233.250 555.827 C 221.844 560.262, 209.497 560.072, 199.061 555.300 C 194.096 553.029, 186.761 545.814, 184.196 540.677 C 177.598 527.468, 179.654 510.937, 189.128 501.024 C 193.184 496.779, 200.569 492.193, 205.475 490.872 C 215.191 488.256, 232.035 490.684, 241.656 496.088 C 243.566 497.160, 245.550 497.778, 246.065 497.460 C 246.579 497.142, 247 494.445, 247 491.467 C 247 486.569, 246.737 485.916, 244.250 484.637 C 234.610 479.678, 216.286 477.070, 205.094 479.065 M 303.500 478.699 C 294.789 479.857, 282.162 486.007, 276.857 491.676 C 272.502 496.330, 267.301 505.247, 265.599 510.979 C 263.603 517.700, 263.544 530.925, 265.481 537.310 C 267.776 544.874, 271.897 551.612, 277.415 556.826 C 287.339 566.201, 297.280 570.062, 311.500 570.062 C 326.076 570.062, 337.643 565.525, 347.013 556.134 C 356.665 546.460, 360.714 534.904, 359.664 520.026 C 359.172 513.061, 358.431 510.237, 355.591 504.506 C 346.321 485.798, 325.964 475.712, 303.500 478.699 M 364.377 480.460 C 364.069 481.262, 365.130 484.750, 366.735 488.210 C 368.339 491.669, 376.784 511.262, 385.500 531.750 C 398.239 561.694, 401.712 569, 403.205 569 C 404.227 569, 405.332 568.212, 405.660 567.250 C 405.989 566.288, 407.972 561.450, 410.066 556.500 C 432.907 502.523, 441.875 480.607, 441.422 479.874 C 441.125 479.393, 438.669 479, 435.964 479 C 430.187 479, 429.905 479.319, 424.515 491.943 C 422.533 496.587, 420.307 501.762, 419.570 503.443 C 418.833 505.124, 415.093 513.925, 411.260 523 C 407.426 532.075, 403.661 539.613, 402.894 539.752 C 401.940 539.925, 397.555 530.664, 389 510.410 C 382.009 493.858, 375.758 480.416, 374.816 479.908 C 372.072 478.429, 365.013 478.802, 364.377 480.460 M 486.200 480.200 C 484.625 481.775, 484.532 534.101, 486.089 542.526 C 488.170 553.779, 493.136 560.675, 502.546 565.378 C 519.054 573.629, 541.685 571.050, 553.062 559.621 C 561.457 551.187, 563 542.961, 563 506.628 C 563 488.339, 562.670 481.070, 561.800 480.200 C 560.449 478.849, 553.177 478.601, 551.225 479.840 C 550.245 480.462, 549.898 487.800, 549.725 511.574 C 549.506 541.621, 549.435 542.621, 547.223 546.763 C 542.674 555.281, 532.488 559.802, 520.394 558.672 C 513.455 558.024, 509.018 556.181, 504.661 552.136 C 498.541 546.454, 498.529 546.382, 498.184 512.018 C 497.955 489.156, 497.544 480.331, 496.684 479.784 C 494.807 478.590, 487.521 478.879, 486.200 480.200 M 579.244 480.156 C 577.285 482.115, 577.456 566.304, 579.422 567.936 C 580.218 568.596, 582.971 568.980, 585.672 568.808 L 590.500 568.500 590.770 547.750 C 591.079 524.075, 591.193 523.828, 598.379 531.263 C 600.646 533.608, 610.265 543.058, 619.757 552.263 L 637.013 569 645.007 569 C 649.403 569, 653 568.631, 653 568.179 C 653 567.727, 642.650 557.336, 630 545.087 C 617.350 532.837, 607 522.400, 607 521.893 C 607 521.153, 621.679 504.773, 641.295 483.624 C 642.762 482.042, 643.719 480.355, 643.422 479.874 C 643.125 479.393, 640.033 479, 636.552 479 C 629.057 479, 630.359 478.025, 613.877 495.993 C 607.070 503.414, 599.739 511.402, 597.587 513.743 C 595.435 516.084, 593.083 518, 592.359 518 C 591.326 518, 590.985 513.859, 590.772 498.750 L 590.500 479.500 585.494 479.206 C 582.464 479.028, 579.997 479.403, 579.244 480.156 M 304 490.873 C 293.598 493.158, 286.558 498.408, 281.249 507.840 C 277.611 514.303, 277.500 514.796, 277.500 524.500 C 277.500 533.688, 277.738 534.929, 280.430 539.788 C 283.804 545.878, 289.893 551.840, 296.151 555.179 C 299.956 557.210, 301.875 557.496, 311.500 557.470 C 324.330 557.436, 328.963 555.841, 336.554 548.843 C 353.857 532.894, 348.777 502.867, 327.157 493.306 C 321.083 490.619, 310.307 489.487, 304 490.873 M 449.533 555.533 C 444.106 560.960, 445.214 566.497, 452.645 571.090 L 456.083 573.214 459.898 570.571 C 466.795 565.791, 467.732 560.532, 462.600 555.400 C 457.978 550.778, 454.250 550.816, 449.533 555.533" stroke="none" fill="#454545" fill-rule="evenodd"/></svg>