<svg xmlns="http://www.w3.org/2000/svg" width="612" height="612" viewBox="0 0 612 612" version="1.1"><path d="M 295 105.018 C 244.074 112.100, 204.514 140.359, 192.829 178 C 189.898 187.444, 189.687 203.987, 192.373 213.839 L 194.101 220.178 190.172 229.339 C 181.919 248.585, 177.501 267, 175.958 288.587 C 174.830 304.366, 175.707 309.976, 180.140 315.354 C 183.397 319.305, 187.330 321.373, 193.602 322.433 L 197.500 323.092 197.500 301.296 C 197.500 284.172, 197.881 277.736, 199.276 271.273 C 202.721 255.310, 206.110 245.362, 212.482 232.500 C 228.137 200.903, 255.066 174.997, 279.933 167.612 C 288.241 165.145, 288.757 165.643, 282.364 169.959 C 259.845 185.163, 232.653 218.106, 224.781 239.721 C 223.548 243.105, 222.766 246.099, 223.041 246.375 C 224.400 247.733, 242.408 252.159, 250.749 253.184 C 268.325 255.344, 288.871 251.116, 306 241.814 C 321.750 233.262, 340.101 217.259, 361.404 193.500 C 375.667 177.592, 390.670 162.433, 397 157.533 C 402.867 152.991, 413.942 147, 416.471 147 C 419.254 147, 418.070 145.232, 411.750 139.949 C 392.698 124.026, 370.942 113.368, 345.344 107.417 C 336.740 105.417, 331.091 104.815, 318 104.505 C 308.925 104.290, 298.575 104.521, 295 105.018 M 377.275 216.940 C 373.214 217.944, 369.139 220.520, 366.286 223.887 C 363.081 227.670, 363.444 229.406, 367.750 230.892 C 373.030 232.714, 388.206 241.396, 396.500 247.340 C 426.281 268.681, 445.464 297.022, 455.152 333.992 C 458.077 345.154, 458.776 366.413, 456.548 376.428 C 455.602 380.681, 454.588 383.921, 454.294 383.628 C 454.001 383.334, 453.375 379.283, 452.902 374.624 C 450.094 346.914, 434.906 308.129, 420.156 291 L 417.142 287.500 409.502 295 C 392.405 311.784, 383.708 327.962, 380.473 349 C 376.757 373.165, 379.726 391.480, 395.432 441.268 C 406.892 477.597, 408.867 488.355, 406.716 502.744 L 405.933 507.988 415.240 504.619 C 464.817 486.673, 500.725 444.820, 512.201 391.604 C 514.817 379.469, 515.361 351.549, 513.176 341.500 C 508.171 318.478, 497.389 299.997, 482.583 289.062 C 475.700 283.979, 471.959 282.129, 462.162 278.961 L 453.824 276.265 447.343 267.630 C 435.617 252.006, 420.292 237.483, 404.104 226.654 C 390.389 217.479, 384.186 215.233, 377.275 216.940 M 100.642 327.750 C 97.023 340.592, 96.349 374.242, 99.406 389.500 C 110.290 443.844, 149.800 489.327, 198.500 503.575 C 210.797 507.173, 228.397 508.001, 239.617 505.510 C 250.628 503.065, 262.959 496.580, 271.783 488.593 C 278.115 482.861, 279.571 482, 282.934 482 C 296.296 482, 325.689 474.064, 343.397 465.676 C 363.900 455.964, 368.658 450.777, 367.811 439.066 C 367.577 435.825, 366.601 432.040, 365.610 430.528 L 363.830 427.811 361.665 429.799 C 355.142 435.788, 334.669 446.944, 320.646 452.152 C 305.093 457.928, 293.153 460.137, 274.500 460.688 C 260.318 461.106, 255.502 460.850, 245.449 459.141 C 222.030 455.161, 203.117 447.133, 190.704 435.905 C 186.967 432.524, 184.088 429.578, 184.308 429.359 C 184.527 429.139, 188.036 430.523, 192.104 432.434 C 207.706 439.764, 234.647 446.051, 257.041 447.588 C 266.559 448.242, 283.655 446.704, 285.344 445.042 C 285.809 444.585, 285.232 440.451, 284.062 435.856 C 276.167 404.827, 259.760 384.461, 231 369.994 C 215.787 362.341, 201.932 358.166, 163 349.502 C 147.325 346.013, 130.571 341.734, 125.770 339.992 C 117.213 336.888, 106.848 330.988, 104.128 327.673 C 102.367 325.527, 101.261 325.552, 100.642 327.750" stroke="none" fill="#05a44d" fill-rule="evenodd"/></svg>