<svg xmlns="http://www.w3.org/2000/svg" width="512" height="512" viewBox="0 0 512 512" version="1.1"><path d="M 199 23.659 C 173.403 27.617, 152.388 46.754, 147.014 71 C 144.288 83.294, 144.170 83.374, 175.494 52.021 C 191.440 36.059, 203.815 23.061, 202.994 23.136 C 202.172 23.211, 200.375 23.446, 199 23.659 M 185.538 62.962 C 169.617 78.890, 156.850 92.183, 157.168 92.501 C 157.486 92.819, 161.066 92.395, 165.123 91.559 C 186.587 87.134, 205.179 70.758, 211.788 50.458 C 213.621 44.827, 215.627 34, 214.837 34 C 214.645 34, 201.460 47.033, 185.538 62.962 M 72 43.908 C 72 44.241, 85.050 57.557, 101 73.500 C 132.443 104.929, 131.588 104.384, 128.443 91 C 123.679 70.726, 107.694 53.287, 87.761 46.617 C 82.286 44.785, 72 43.017, 72 43.908 M 61.358 59.911 C 63.429 79.028, 77.167 97.886, 95.381 106.616 C 101.968 109.772, 115.771 113.576, 117.974 112.842 C 118.544 112.652, 105.906 99.447, 89.891 83.498 L 60.771 54.500 61.358 59.911 M 108 173.500 L 108 182 111.545 182 C 113.976 182, 115.862 182.772, 117.545 184.455 C 122.625 189.534, 119.138 197, 111.686 197 L 108 197 108 206 L 108 215 111.826 215 C 119.150 215, 122.576 222.515, 117.545 227.545 C 115.862 229.228, 113.976 230, 111.545 230 L 108 230 108 238.372 L 108 246.744 112.014 247.386 C 116.985 248.181, 120 251.056, 120 255 C 120 259.226, 116.881 262, 112.130 262 L 108.260 262 107.748 278.250 C 107.396 289.464, 106.749 295.817, 105.663 298.750 L 104.089 303 117.044 303 L 130 303 130 234 L 130 165 119 165 L 108 165 108 173.500 M 145 234 L 145 303 158.067 303 L 171.135 303 170.413 300.750 C 170.016 299.512, 169.321 296.925, 168.869 295 C 167.693 289.991, 167.789 240.263, 168.979 238.039 C 169.517 237.033, 171.317 235.736, 172.979 235.157 L 176 234.104 176 224.500 L 176 214.896 172.979 213.843 C 171.317 213.264, 169.517 211.967, 168.979 210.961 C 168.425 209.926, 168 199.547, 168 187.066 L 168 165 156.500 165 L 145 165 145 234 M 342.994 181.876 C 330.809 185.867, 322.520 197.300, 322.601 210 C 322.673 221.345, 328.253 230.407, 338.500 235.820 C 342.699 238.038, 344.781 238.461, 351.500 238.461 C 361.125 238.461, 367.025 235.854, 373.805 228.604 C 377.986 224.133, 379.130 223.592, 383.653 223.948 C 385.281 224.076, 386.057 223.311, 386.833 220.809 C 389.428 212.448, 389.335 202.652, 386.665 203.183 C 383.476 203.817, 380.258 201.797, 378.063 197.782 C 374.914 192.021, 369.365 186.281, 364.500 183.750 C 360.150 181.486, 347.536 180.387, 342.994 181.876 M 478.770 242.966 C 474.870 246.034, 473.482 250.328, 474.881 254.998 C 476.443 260.209, 480.146 263, 485.500 263 C 495.979 263, 500.829 250.241, 492.889 243.560 C 489.043 240.324, 482.481 240.047, 478.770 242.966 M 246 295.198 C 239.412 299.658, 239.429 309.335, 246.032 313.818 C 254.533 319.589, 265.621 311.483, 262.842 301.529 C 260.757 294.061, 252.348 290.899, 246 295.198 M 89.794 327.739 L 84.110 337.500 137.213 337.759 C 166.419 337.901, 190.505 337.828, 190.736 337.597 C 190.968 337.366, 188.735 332.974, 185.775 327.838 L 180.393 318.500 137.936 318.239 L 95.479 317.979 89.794 327.739 M 46.132 403.511 C 26.368 437.738, 16.585 455.644, 15.806 459.018 C 12.963 471.335, 21.063 484.562, 33.500 487.912 C 37.214 488.912, 191 489.609, 191 488.626 C 191 488.420, 190.222 486.282, 189.270 483.876 C 187.729 479.976, 187.538 474.929, 187.520 437.500 C 187.501 398.248, 187.622 395.298, 189.366 392.418 C 192.469 387.295, 194.510 386.564, 207.252 386.010 L 219.005 385.500 209.737 369.500 L 200.469 353.500 137.888 353.243 L 75.307 352.985 46.132 403.511 M 90.039 392.189 C 86.455 396.035, 87.560 401.491, 92.329 403.496 C 100.034 406.736, 106.046 399.142, 100.927 392.635 C 98.250 389.231, 92.995 389.016, 90.039 392.189 M 202 414.971 L 202 429 223.095 429 L 244.190 429 241.442 424.310 C 239.930 421.731, 236.337 415.543, 233.458 410.560 L 228.223 401.500 215.111 401.221 L 202 400.942 202 414.971 M 67.455 428.455 C 66.105 429.805, 65 432.075, 65 433.500 C 65 436.986, 69.164 441, 72.780 441 C 76.382 441, 80 437.312, 80 433.640 C 80 430.166, 75.910 426, 72.500 426 C 71.075 426, 68.805 427.105, 67.455 428.455 M 403.843 439.021 C 403.264 440.683, 401.967 442.483, 400.961 443.021 C 399.803 443.641, 363.121 444, 301.066 444 L 203 444 203 461.352 C 203 477.704, 203.130 478.894, 205.250 482.001 C 206.488 483.813, 209.075 486.135, 211 487.159 C 214.366 488.949, 219.128 489.011, 335.177 488.760 C 455.298 488.501, 455.866 488.491, 458.615 486.438 C 465.158 481.553, 465.471 480.467, 465.814 461.430 L 466.129 444 447.999 444 C 438.027 444, 429.045 443.559, 428.039 443.021 C 427.033 442.483, 425.736 440.683, 425.157 439.021 L 424.104 436 414.500 436 L 404.896 436 403.843 439.021 M 113 440 C 111.889 441.111, 111 443.333, 111 445 C 111 451.919, 119.003 454.676, 123.750 449.393 C 126.546 446.281, 126.592 444.022, 123.927 440.635 C 121.330 437.333, 115.978 437.022, 113 440" stroke="none" fill="#04d6d1" fill-rule="evenodd"/><path d="M 192.349 8.986 C 175.374 12.569, 158.299 22.836, 147.714 35.824 L 145.004 39.148 142.367 37.074 C 138.870 34.323, 135.455 34.454, 132.455 37.455 C 130.211 39.699, 130 40.684, 130 48.948 L 130 57.987 123.250 51.198 C 106.987 34.841, 87.122 27.094, 64.415 28.253 C 47.006 29.142, 45.527 30.883, 45.526 50.500 C 45.525 65.957, 46.993 72.438, 53.453 85.500 C 66.357 111.590, 91.978 127.849, 120.750 128.207 L 130 128.322 130 138.610 L 130 148.897 106.526 149.199 C 84.259 149.484, 82.944 149.607, 80.964 151.590 C 78.080 154.476, 78.106 159.420, 81.021 162.523 C 82.802 164.419, 84.364 165, 87.674 165 L 92 165 92 228.605 L 92 292.210 89.638 296.855 C 88.339 299.410, 68.298 334.350, 45.102 374.500 C 19.347 419.080, 2.312 449.606, 1.347 452.909 C -1.166 461.506, -0.161 473.200, 3.779 481.202 C 7.907 489.589, 14.880 496.558, 23 500.413 L 29.500 503.500 243.390 503.759 L 457.281 504.018 462.890 501.455 C 470.273 498.082, 474.607 493.826, 478.121 486.500 L 480.998 480.500 480.999 438.718 C 481 394.158, 480.867 392.810, 476.033 388.500 C 473.824 386.530, 472.014 386.493, 355.296 386 L 236.801 385.500 210.941 340.724 C 196.717 316.098, 184.614 294.273, 184.045 292.224 C 183.464 290.132, 183.009 277.847, 183.006 264.184 C 183.002 249.534, 182.593 239.109, 181.977 237.957 C 180.252 234.733, 177.343 233.732, 173.443 235.019 C 171.541 235.647, 169.538 236.995, 168.992 238.014 C 167.790 240.262, 167.682 289.944, 168.869 295 C 169.321 296.925, 170.016 299.512, 170.413 300.750 L 171.135 303 158.067 303 L 145 303 145 234 L 145 165 156.500 165 L 168 165 168 187.066 C 168 199.750, 168.422 209.920, 168.992 210.986 C 170.396 213.608, 176.327 215.431, 178.928 214.038 C 182.644 212.050, 183 209.691, 183 187.066 L 183 165 187.545 165 C 197.316 165, 200.658 154.607, 192.316 150.163 C 190.845 149.380, 182.923 149, 168.066 149 L 146 149 146 128.639 L 146 108.279 157.250 107.766 C 165.820 107.376, 170.405 106.612, 176.500 104.560 C 202.828 95.698, 221.485 75.648, 228.123 49.084 C 229.865 42.113, 230.155 38.509, 229.811 28.084 C 229.378 14.950, 228.534 11.915, 224.727 9.820 C 222.021 8.331, 198.340 7.721, 192.349 8.986 M 199 23.659 C 173.403 27.617, 152.388 46.754, 147.014 71 C 144.288 83.294, 144.170 83.374, 175.494 52.021 C 191.440 36.059, 203.815 23.061, 202.994 23.136 C 202.172 23.211, 200.375 23.446, 199 23.659 M 185.538 62.962 C 169.617 78.890, 156.850 92.183, 157.168 92.501 C 157.486 92.819, 161.066 92.395, 165.123 91.559 C 186.587 87.134, 205.179 70.758, 211.788 50.458 C 213.621 44.827, 215.627 34, 214.837 34 C 214.645 34, 201.460 47.033, 185.538 62.962 M 72 43.908 C 72 44.241, 85.050 57.557, 101 73.500 C 132.443 104.929, 131.588 104.384, 128.443 91 C 123.679 70.726, 107.694 53.287, 87.761 46.617 C 82.286 44.785, 72 43.017, 72 43.908 M 376.326 49.060 C 374.031 49.505, 370.756 50.592, 369.050 51.474 C 366.578 52.752, 365.188 52.869, 362.223 52.045 C 355.897 50.288, 344.039 50.780, 337.221 53.083 C 321.336 58.447, 307.451 71.915, 295.493 93.558 L 290.173 103.187 273.836 103.459 C 255.878 103.757, 246.935 105.486, 235.500 110.872 C 207.025 124.283, 199.708 154.164, 216.490 188.500 C 218.909 193.450, 222.727 200.278, 224.973 203.674 L 229.058 209.849 224.657 216.674 C 210.735 238.266, 205.007 258.824, 208.411 274.976 C 210.470 284.746, 213.866 291.505, 219.852 297.748 C 223.598 301.655, 224.870 303.819, 225.388 307.161 C 226.968 317.349, 234.053 326.467, 242.825 329.600 C 248.451 331.609, 257.753 331.295, 263 328.918 C 265.475 327.797, 269.612 324.633, 272.193 321.887 C 276.749 317.040, 277.087 316.877, 283.693 316.331 L 290.500 315.768 293.484 322.134 C 301.453 339.139, 317.504 357.496, 329.568 363.405 C 350.687 373.747, 370.133 369.839, 388.616 351.537 C 397.105 343.131, 404.434 332.793, 409.490 322.092 L 412.481 315.764 420.641 316.426 C 432.331 317.375, 448.760 315.472, 459.288 311.952 C 476.695 306.130, 487.561 296.450, 492.593 282.283 C 493.949 278.466, 495.183 276.806, 497.482 275.710 C 510.426 269.538, 515.905 253.228, 509.412 240.199 C 505.063 231.472, 495.224 225.057, 486.068 224.978 C 483.965 224.960, 482.637 223.584, 478.735 217.381 L 473.970 209.806 478.043 203.653 C 497.532 174.209, 500.620 144.783, 486.212 125.810 C 474.642 110.574, 456.642 103.700, 427.975 103.570 L 412.449 103.500 408.679 95.982 L 404.909 88.463 406.555 84.522 C 408.658 79.489, 408.137 69.017, 405.515 63.597 C 400.341 52.903, 388.056 46.784, 376.326 49.060 M 61.358 59.911 C 63.429 79.028, 77.167 97.886, 95.381 106.616 C 101.968 109.772, 115.771 113.576, 117.974 112.842 C 118.544 112.652, 105.906 99.447, 89.891 83.498 L 60.771 54.500 61.358 59.911 M 345.962 66.923 C 335.165 69.038, 320.153 82.010, 312.299 96.011 C 306.158 106.957, 306.191 106.617, 311.195 107.406 C 316.824 108.293, 333.413 113.091, 343.471 116.740 L 351.443 119.631 362.186 115.847 C 373.410 111.894, 391.121 107, 394.205 107 C 396.389 107, 396.409 106.692, 394.469 102.939 C 393.141 100.372, 392.575 100.079, 390.219 100.739 C 384.689 102.287, 373.722 101.512, 369.432 99.271 C 359.899 94.289, 354.479 84.519, 355.176 73.572 C 355.685 65.577, 355.076 65.138, 345.962 66.923 M 258.831 120.023 C 245.263 122.313, 233.591 128.487, 228.615 136.005 C 220.132 148.824, 222.240 168.087, 234.394 188.819 L 239.075 196.803 251.321 184.652 C 258.056 177.968, 265.689 170.925, 268.282 169 C 270.876 167.075, 273.200 164.600, 273.446 163.500 C 273.693 162.400, 274.863 156.559, 276.046 150.519 C 277.230 144.480, 279.330 135.705, 280.713 131.019 C 282.096 126.334, 283.454 121.713, 283.730 120.750 C 284.188 119.158, 283.295 119.011, 273.867 119.118 C 268.165 119.182, 261.399 119.590, 258.831 120.023 M 419.013 119.608 C 419.020 120.099, 420.156 124.040, 421.538 128.368 C 422.920 132.695, 425.364 142.735, 426.970 150.680 C 429.589 163.641, 430.177 165.348, 432.694 167.303 C 438.873 172.100, 455.226 187.409, 459.175 192.093 L 463.373 197.072 467.272 190.939 C 475.668 177.734, 480.720 161.303, 479.550 151.009 C 477.882 136.335, 468.052 126.181, 450.869 121.382 C 444.755 119.675, 418.993 118.240, 419.013 119.608 M 297.157 131.375 C 294.131 141.312, 291.899 150.232, 292.331 150.664 C 292.451 150.785, 296.138 148.588, 300.525 145.783 C 304.911 142.977, 313.381 138.107, 319.347 134.960 C 325.312 131.812, 329.812 129.014, 329.347 128.741 C 327.884 127.884, 316.903 124.892, 308.404 123.034 L 300.240 121.250 297.157 131.375 M 400.500 121.772 C 396.627 122.426, 377.535 127.226, 375.056 128.169 C 372.719 129.057, 373.230 129.482, 382.524 134.370 C 388.011 137.256, 396.550 142.140, 401.500 145.224 C 406.450 148.308, 410.600 150.731, 410.722 150.610 C 411.055 150.279, 405.335 129.033, 403.818 124.967 C 402.823 122.298, 402.011 121.516, 400.500 121.772 M 333.423 145.465 C 324.245 150.121, 310.310 158.212, 302.455 163.445 L 288.174 172.959 287.337 180.729 C 286.266 190.674, 286.251 229.203, 287.314 239 L 288.129 246.500 295.786 251.879 C 313.216 264.122, 346.497 282.250, 351.543 282.250 C 353.464 282.250, 375.850 271.582, 384 266.783 C 385.925 265.649, 393.654 260.650, 401.176 255.674 L 414.852 246.627 415.676 238.063 C 416.742 226.984, 416.738 192.973, 415.668 181.847 L 414.837 173.194 404.668 166.245 C 399.076 162.422, 390.068 156.701, 384.651 153.531 C 374.658 147.682, 352.996 137, 351.130 137 C 350.569 137, 342.600 140.809, 333.423 145.465 M 108 173.500 L 108 182 111.545 182 C 113.976 182, 115.862 182.772, 117.545 184.455 C 122.625 189.534, 119.138 197, 111.686 197 L 108 197 108 206 L 108 215 111.826 215 C 119.150 215, 122.576 222.515, 117.545 227.545 C 115.862 229.228, 113.976 230, 111.545 230 L 108 230 108 238.372 L 108 246.744 112.014 247.386 C 116.985 248.181, 120 251.056, 120 255 C 120 259.226, 116.881 262, 112.130 262 L 108.260 262 107.748 278.250 C 107.396 289.464, 106.749 295.817, 105.663 298.750 L 104.089 303 117.044 303 L 130 303 130 234 L 130 165 119 165 L 108 165 108 173.500 M 341.459 166.395 C 333.848 168.244, 327.526 171.667, 321.428 177.240 C 298.134 198.529, 303.921 236.619, 332.500 250.112 C 349.566 258.170, 369.549 254.611, 383.052 241.108 C 388.295 235.865, 389 234.695, 389 231.235 C 389 225.757, 386.121 223.456, 379.805 223.885 C 378.873 223.948, 376.173 226.072, 373.805 228.604 C 367.025 235.854, 361.125 238.461, 351.500 238.461 C 344.781 238.461, 342.699 238.038, 338.500 235.820 C 320.800 226.469, 317.038 203.925, 330.799 189.665 C 337.116 183.120, 341.193 181.514, 351.500 181.514 C 358.817 181.514, 361.248 181.918, 364.500 183.672 C 369.410 186.321, 374.947 192.082, 378.063 197.782 C 380.413 202.080, 383.330 203.727, 387.500 203.110 C 396.822 201.731, 393.764 188.383, 381.575 177.243 C 370.268 166.909, 355.633 162.951, 341.459 166.395 M 260.014 198.183 C 254.506 203.784, 250 209.030, 250 209.841 C 250 210.653, 254.613 215.985, 260.250 221.692 L 270.500 232.066 270.500 210.033 C 270.500 197.915, 270.394 188, 270.264 188 C 270.134 188, 265.521 192.582, 260.014 198.183 M 432.500 210.060 L 432.500 232.187 442.750 221.596 C 448.387 215.772, 453 210.483, 453 209.845 C 453 209.206, 448.387 204.015, 442.750 198.309 L 432.500 187.934 432.500 210.060 M 234.961 229.950 C 226.825 243.644, 222.176 259.649, 223.473 269.500 C 224.186 274.915, 227.131 282.383, 229.653 285.169 C 231.140 286.812, 231.433 286.746, 234.864 283.995 C 239.729 280.094, 246.038 278, 252.929 278 C 263.622 278, 274.474 285.972, 277.388 295.969 C 278.481 299.715, 279.125 300.500, 281.105 300.500 C 283.999 300.500, 283.985 300.083, 280.711 288.981 C 279.329 284.295, 277.230 275.520, 276.046 269.481 C 274.863 263.441, 273.705 257.600, 273.474 256.500 C 273.243 255.400, 270.246 252.250, 266.814 249.500 C 263.382 246.750, 255.745 239.655, 249.842 233.734 L 239.109 222.968 234.961 229.950 M 454.500 232.383 C 449.550 237.506, 441.912 244.717, 437.527 248.408 L 429.555 255.120 427.319 267.310 C 426.090 274.014, 423.749 283.984, 422.116 289.465 C 420.483 294.946, 419.406 299.848, 419.723 300.360 C 420.537 301.678, 442.157 300.357, 449.769 298.524 C 461.457 295.709, 472.076 288.658, 475.925 281.155 L 477.716 277.663 472.880 275.253 C 458.549 268.112, 454.498 248.671, 464.586 235.455 C 468.237 230.673, 468.328 229.239, 465.233 225.285 L 463.500 223.069 454.500 232.383 M 478.770 242.966 C 474.870 246.034, 473.482 250.328, 474.881 254.998 C 476.443 260.209, 480.146 263, 485.500 263 C 495.979 263, 500.829 250.241, 492.889 243.560 C 489.043 240.324, 482.481 240.047, 478.770 242.966 M 292.380 270.750 C 292.663 271.712, 293.615 275.425, 294.495 279 C 297.603 291.621, 300.068 298.001, 301.832 297.985 C 304.062 297.965, 314.880 295.402, 323.398 292.874 L 330.296 290.827 320.898 285.789 C 315.729 283.019, 307.291 278.108, 302.146 274.876 C 297.001 271.644, 292.583 269, 292.328 269 C 292.074 269, 292.097 269.788, 292.380 270.750 M 402.857 273.554 C 399.204 275.974, 390.942 280.854, 384.497 284.397 L 372.779 290.839 379.640 292.911 C 383.413 294.051, 390.022 295.746, 394.326 296.678 C 401.022 298.128, 402.277 298.169, 403.024 296.960 C 403.505 296.184, 405.305 290.362, 407.026 284.024 C 408.746 277.686, 410.375 271.712, 410.644 270.750 C 411.347 268.243, 410.311 268.616, 402.857 273.554 M 246 295.198 C 239.412 299.658, 239.429 309.335, 246.032 313.818 C 254.533 319.589, 265.621 311.483, 262.842 301.529 C 260.757 294.061, 252.348 290.899, 246 295.198 M 340 304.015 C 334.225 306.101, 324.550 309.041, 318.500 310.548 C 312.450 312.055, 307.356 313.405, 307.180 313.547 C 306.549 314.058, 311.357 322.635, 316.283 329.788 C 330.606 350.585, 348.192 357.875, 364.934 349.955 C 373.151 346.067, 383.746 335.379, 390.209 324.457 C 397.162 312.707, 397.438 313.738, 386.658 311.192 C 381.489 309.971, 371.914 307.145, 365.380 304.913 C 358.846 302.680, 352.825 300.711, 352 300.537 C 351.175 300.364, 345.775 301.929, 340 304.015 M 89.794 327.739 L 84.110 337.500 137.213 337.759 C 166.419 337.901, 190.505 337.828, 190.736 337.597 C 190.968 337.366, 188.735 332.974, 185.775 327.838 L 180.393 318.500 137.936 318.239 L 95.479 317.979 89.794 327.739 M 46.132 403.511 C 26.368 437.738, 16.585 455.644, 15.806 459.018 C 12.963 471.335, 21.063 484.562, 33.500 487.912 C 37.214 488.912, 191 489.609, 191 488.626 C 191 488.420, 190.222 486.282, 189.270 483.876 C 187.729 479.976, 187.538 474.929, 187.520 437.500 C 187.501 398.248, 187.622 395.298, 189.366 392.418 C 192.469 387.295, 194.510 386.564, 207.252 386.010 L 219.005 385.500 209.737 369.500 L 200.469 353.500 137.888 353.243 L 75.307 352.985 46.132 403.511 M 90.039 392.189 C 86.455 396.035, 87.560 401.491, 92.329 403.496 C 100.034 406.736, 106.046 399.142, 100.927 392.635 C 98.250 389.231, 92.995 389.016, 90.039 392.189 M 202 414.971 L 202 429 223.095 429 L 244.190 429 241.442 424.310 C 239.930 421.731, 236.337 415.543, 233.458 410.560 L 228.223 401.500 215.111 401.221 L 202 400.942 202 414.971 M 247.951 404.750 C 249.047 406.813, 252.565 413, 255.769 418.500 L 261.595 428.500 331.547 429.017 C 370.021 429.301, 401.602 429.639, 401.727 429.767 C 404.383 432.494, 405.091 435.193, 404.010 438.470 C 403.366 440.420, 402.005 442.462, 400.986 443.008 C 399.795 443.645, 364.025 444, 301.066 444 L 203 444 203 461.352 C 203 477.704, 203.130 478.894, 205.250 482.001 C 206.488 483.813, 209.075 486.135, 211 487.159 C 214.366 488.949, 219.128 489.011, 335.177 488.760 C 455.298 488.501, 455.866 488.491, 458.615 486.438 C 465.158 481.553, 465.471 480.467, 465.814 461.430 L 466.129 444 447.999 444 C 437.918 444, 429.045 443.559, 428.014 443.008 C 425.392 441.604, 423.569 435.673, 424.962 433.072 C 426.895 429.458, 429.425 429, 447.434 429 L 465 429 465 415 L 465 401 355.480 401 L 245.959 401 247.951 404.750 M 67.455 428.455 C 66.105 429.805, 65 432.075, 65 433.500 C 65 436.986, 69.164 441, 72.780 441 C 76.382 441, 80 437.312, 80 433.640 C 80 430.166, 75.910 426, 72.500 426 C 71.075 426, 68.805 427.105, 67.455 428.455 M 113 440 C 111.889 441.111, 111 443.333, 111 445 C 111 451.919, 119.003 454.676, 123.750 449.393 C 126.546 446.281, 126.592 444.022, 123.927 440.635 C 121.330 437.333, 115.978 437.022, 113 440" stroke="none" fill="#040505" fill-rule="evenodd"/></svg>