<svg xmlns="http://www.w3.org/2000/svg" width="450" height="479" viewBox="0 0 450 479" version="1.1"><path d="M 202.326 67.473 C 198.508 69.383, 193.196 73.096, 190.521 75.723 C 186.201 79.966, 176 94.165, 176 95.934 C 176 96.307, 179.938 95.802, 184.750 94.813 C 189.563 93.823, 197.775 92.673, 203 92.257 L 212.500 91.500 212.778 77.750 C 213.105 61.602, 213.427 61.919, 202.326 67.473 M 222.222 77.750 L 222.500 91.500 231.992 92.285 C 237.213 92.717, 245.425 93.867, 250.242 94.840 C 255.059 95.813, 259 96.305, 259 95.933 C 259 94.165, 248.797 79.965, 244.479 75.723 C 239.606 70.937, 227.392 64, 223.837 64 C 222.057 64, 221.960 64.826, 222.222 77.750 M 170.472 74.488 C 149.593 84.932, 132.859 101.495, 122.520 121.948 L 119.766 127.396 125.047 122.648 C 132.798 115.678, 144.067 108.596, 154.252 104.291 L 163.220 100.500 166.746 93.500 C 169.981 87.077, 174.689 79.737, 180.055 72.750 C 183.067 68.827, 181.060 69.192, 170.472 74.488 M 254.945 72.750 C 260.330 79.762, 265.024 87.087, 268.290 93.577 L 271.850 100.653 280.736 104.336 C 290.771 108.496, 302.133 115.617, 309.953 122.648 L 315.234 127.396 312.480 121.948 C 302.128 101.468, 285.333 84.856, 264.492 74.483 C 253.884 69.203, 251.952 68.852, 254.945 72.750 M 201.883 102.054 C 192.044 102.922, 177.956 105.607, 173.434 107.477 C 170.771 108.578, 170.083 109.716, 168.207 116.122 C 167.019 120.180, 165.739 125.505, 165.363 127.956 C 164.953 130.625, 163.722 133.369, 162.293 134.798 C 160.118 136.973, 159.714 137.055, 157.704 135.727 C 154.695 133.739, 154.562 131.547, 156.860 121.843 C 157.947 117.256, 158.693 113.360, 158.519 113.186 C 157.956 112.623, 145.666 119.161, 139.772 123.160 C 127.736 131.324, 117.221 144.100, 113.309 155.313 C 112.011 159.036, 111.514 163.322, 111.550 170.500 C 111.593 179.036, 111.995 181.438, 114.294 186.907 C 120.076 200.661, 133.308 213.984, 150.041 222.899 C 154.488 225.269, 158.330 227.003, 158.580 226.753 C 158.829 226.504, 158.100 222.368, 156.959 217.563 C 154.559 207.460, 154.673 205.275, 157.704 203.273 C 159.714 201.945, 160.118 202.027, 162.293 204.202 C 163.715 205.624, 164.959 208.388, 165.374 211.044 C 165.756 213.495, 167.177 219.162, 168.532 223.638 L 170.996 231.775 179.748 233.881 C 191.239 236.645, 200.181 237.983, 207.226 237.992 L 212.952 238 213.226 221.371 C 213.481 205.887, 213.641 204.648, 215.546 203.384 C 217.291 202.227, 217.918 202.254, 219.796 203.570 C 221.916 205.055, 222 205.741, 222 221.557 L 222 238 227.750 237.992 C 234.816 237.983, 243.750 236.648, 255.241 233.883 L 263.982 231.781 266.394 224.140 C 267.721 219.938, 269.138 214.278, 269.545 211.563 C 270.018 208.399, 271.147 205.763, 272.688 204.222 C 274.881 202.028, 275.285 201.945, 277.296 203.273 C 280.327 205.275, 280.441 207.460, 278.041 217.563 C 276.900 222.368, 276.171 226.504, 276.420 226.753 C 276.670 227.003, 280.512 225.269, 284.959 222.899 C 301.692 213.984, 314.924 200.661, 320.706 186.907 C 323.005 181.438, 323.407 179.036, 323.450 170.500 C 323.486 163.322, 322.989 159.036, 321.691 155.313 C 317.779 144.100, 307.264 131.324, 295.228 123.160 C 289.334 119.161, 277.044 112.623, 276.481 113.186 C 276.307 113.360, 277.053 117.256, 278.140 121.843 C 280.422 131.481, 280.300 133.742, 277.394 135.662 C 273.726 138.085, 271.216 134.888, 269.021 125 C 265.686 109.972, 265.029 108.732, 259.418 106.853 C 253.084 104.731, 237.327 102.141, 229 101.854 L 222.500 101.629 222.224 117.494 C 221.935 134.085, 221.446 136, 217.500 136 C 213.555 136, 213.065 134.085, 212.776 117.511 C 212.610 107.959, 212.103 101.591, 211.500 101.479 C 210.950 101.377, 206.622 101.636, 201.883 102.054 M 219.086 145.151 C 210.564 146.697, 203.137 153.659, 200.359 162.705 C 197.026 173.558, 202.097 186.120, 211.864 191.207 C 219.463 195.164, 229.311 195.181, 237.071 191.250 C 243.658 187.913, 244.966 185.518, 244.985 176.750 C 245.006 167.464, 243.501 166, 233.934 166 C 226.199 166, 223 167.122, 223 169.835 C 223 172.823, 225.176 174, 230.700 174 L 236 174 236 178.474 C 236 182.418, 235.650 183.130, 233.050 184.474 C 231.427 185.313, 227.669 186, 224.698 186 C 215.083 186, 208.714 179.481, 208.714 169.640 C 208.714 163.619, 210.661 159.304, 215.041 155.619 C 219.454 151.906, 227.966 151.693, 233.919 155.148 C 238.652 157.895, 242 156.974, 242 152.926 C 242 150.226, 241.418 149.630, 236.750 147.553 C 230.536 144.788, 225.136 144.054, 219.086 145.151 M 273.326 145.060 C 265.614 146.556, 259.370 151.409, 255.388 159 C 252.708 164.111, 252.872 175.198, 255.707 180.568 C 258.554 185.959, 264.945 191.613, 269.679 192.928 C 279.878 195.760, 289.474 193.572, 296.191 186.884 C 313.821 169.329, 297.943 140.284, 273.326 145.060 M 148.571 146.571 C 147.241 147.902, 147 151.418, 147 169.500 C 147 187.582, 147.241 191.098, 148.571 192.429 C 150.362 194.220, 151.845 194.382, 154 193.024 C 155.193 192.272, 155.602 188.845, 156 176.289 L 156.500 160.500 168.996 176.793 C 181.529 193.133, 184.361 195.605, 187.531 192.974 C 188.806 191.916, 188.996 188.268, 188.768 169.220 C 188.528 149.051, 188.318 146.602, 186.750 145.613 C 185.476 144.810, 184.524 144.810, 183.250 145.612 C 181.742 146.561, 181.431 148.888, 181 162.464 L 180.500 178.214 168.168 162.183 C 161.386 153.365, 155.162 145.892, 154.336 145.576 C 151.869 144.629, 150.231 144.912, 148.571 146.571 M 274.019 153.063 C 268.896 154.209, 263.334 160.589, 262.478 166.301 C 261.712 171.409, 263.030 176.497, 266.145 180.457 C 272.767 188.876, 286.778 187.681, 292.299 178.228 C 294.594 174.299, 294.773 165.395, 292.640 161.271 C 289.223 154.664, 281.695 151.345, 274.019 153.063 M 70.677 215.250 C 65.723 221.888, 64.497 228.030, 64.537 246 C 64.569 260.438, 64.904 263.812, 67.213 273 C 74.122 300.482, 87.235 325.680, 106.763 349.003 C 116.425 360.541, 135.356 378.899, 144.953 386.035 L 152 391.275 152 403.137 L 152 415 180 415 L 208 415 207.989 390.750 C 207.980 369.198, 207.716 365.221, 205.617 355 C 198.775 321.695, 183.456 302.339, 163.171 301.369 C 159.502 301.194, 155.418 300.788, 154.096 300.467 C 148.239 299.048, 133.784 286.687, 123.200 274.047 C 116.290 265.795, 114.929 264.706, 112.624 265.591 C 110.390 266.448, 109.732 269.380, 109.853 277.938 C 110.042 291.291, 113.845 301.299, 123.256 313.205 C 126.955 317.885, 127.069 318.185, 124.426 316.297 C 119.417 312.720, 109.544 301.816, 104.680 294.490 C 95.655 280.897, 88.247 258.423, 86.025 237.902 C 84.276 221.739, 83.194 216.836, 80.821 214.309 C 77.624 210.906, 73.642 211.276, 70.677 215.250 M 354.278 214.250 C 351.948 216.782, 350.591 222.801, 348.992 237.701 C 346.757 258.531, 339.460 280.723, 330.320 294.490 C 325.423 301.867, 315.567 312.735, 310.500 316.345 C 307.855 318.230, 308.047 317.775, 312.125 312.492 C 321.632 300.174, 325.198 290.688, 325.270 277.523 C 325.314 269.478, 324.576 266.435, 322.376 265.591 C 320.068 264.705, 318.705 265.798, 311.800 274.073 C 303.747 283.722, 291.480 294.877, 285.102 298.348 C 281.247 300.446, 278.424 301.138, 272.526 301.429 C 251.354 302.474, 236.345 321.110, 229.383 355 C 227.284 365.221, 227.020 369.198, 227.011 390.750 L 227 415 255 415 L 283 415 283 403.088 L 283 391.176 289.283 386.692 C 297.936 380.518, 318.516 360.612, 328.182 349.068 C 347.592 325.887, 360.968 300.239, 367.740 273.217 C 370.101 263.798, 370.431 260.502, 370.463 246 C 370.493 232.568, 370.158 228.477, 368.660 224 C 364.959 212.934, 359.127 208.981, 354.278 214.250 M 121.379 215.606 C 123.655 221.732, 132.678 234.586, 140.409 242.716 C 152.095 255.006, 169.879 266.924, 180.514 269.593 L 183.463 270.333 179.269 265.568 C 174.765 260.452, 166.715 247.349, 164.931 242.232 C 164.125 239.919, 162.883 238.792, 160.170 237.913 C 150.925 234.917, 136.450 226.562, 126.588 218.529 C 122.810 215.451, 120.930 214.397, 121.379 215.606 M 312.486 215.022 C 309.735 219.473, 284.470 234.842, 274.830 237.928 C 272.110 238.798, 270.877 239.913, 270.069 242.232 C 268.285 247.349, 260.235 260.452, 255.731 265.568 L 251.537 270.333 254.486 269.593 C 268.468 266.084, 292.564 247.842, 303.485 232.500 C 308.780 225.061, 314.418 215.085, 313.721 214.388 C 313.435 214.101, 312.879 214.387, 312.486 215.022 M 177.553 246.160 C 180.647 252.246, 187.879 261.723, 192.602 265.881 C 197.313 270.028, 205.217 274.364, 210.250 275.562 L 213 276.217 213 262.252 L 213 248.287 203.835 247.595 C 195.359 246.955, 182.316 244.870, 177.775 243.429 C 175.918 242.839, 175.911 242.928, 177.553 246.160 M 254.500 244.074 C 250.394 245.309, 230.836 248, 225.966 248 L 222 248 222 262.108 L 222 276.217 224.750 275.562 C 229.783 274.364, 237.687 270.028, 242.398 265.881 C 247.094 261.747, 254.351 252.251, 257.400 246.250 C 259.169 242.768, 259.076 242.698, 254.500 244.074" stroke="none" fill="#090909" fill-rule="evenodd"/></svg>